<?xml version="1.0" encoding="UTF-8" standalone="no"?>
<svg
   version="1.1"
   width="275px"
   height="275px"
   style="shape-rendering:geometricPrecision; text-rendering:geometricPrecision; image-rendering:optimizeQuality; fill-rule:evenodd; clip-rule:evenodd"
   id="svg3"
   sodipodi:docname="hetrixtool.svg"
   inkscape:version="1.3.2 (091e20e, 2023-11-25, custom)"
   xmlns:inkscape="http://www.inkscape.org/namespaces/inkscape"
   xmlns:sodipodi="http://sodipodi.sourceforge.net/DTD/sodipodi-0.dtd"
   xmlns="http://www.w3.org/2000/svg"
   xmlns:svg="http://www.w3.org/2000/svg">
  <defs
     id="defs3" />
  <sodipodi:namedview
     id="namedview3"
     pagecolor="#ffffff"
     bordercolor="#000000"
     borderopacity="0.25"
     inkscape:showpageshadow="2"
     inkscape:pageopacity="0.0"
     inkscape:pagecheckerboard="0"
     inkscape:deskcolor="#d1d1d1"
     inkscape:zoom="4.4254545"
     inkscape:cx="137.16105"
     inkscape:cy="132.30279"
     inkscape:window-width="2560"
     inkscape:window-height="1494"
     inkscape:window-x="-11"
     inkscape:window-y="-11"
     inkscape:window-maximized="1"
     inkscape:current-layer="svg3" />
  <g
     id="g3"
     transform="translate(-6.1123664,6.4825859)">
    <g
       id="g1"
       transform="matrix(1.2345679,0,0,1.2345679,-24.906152,-20.217308)">
      <path
         style="opacity:0.869"
         fill="#b50011"
         d="m 123.5,25.5 c 1,0 2,0 3,0 -0.166,8.34 0,16.6733 0.5,25 0.833,2.1667 2.333,3.6667 4.5,4.5 5.257,1.4261 9.757,0.2594 13.5,-3.5 1.045,-8.6281 1.878,-17.2948 2.5,-26 12.234,7.5277 16.067,18.1944 11.5,32 -3.294,5.9469 -7.294,11.2803 -12,16 -0.333,25.3333 -0.667,50.667 -1,76 -1.58,4.794 -4.913,6.794 -10,6 -3.935,0.709 -6.935,-0.624 -9,-4 -0.333,-25.333 -0.667,-50.667 -1,-76 -2.156,-5.1662 -5.489,-9.4995 -10,-13 -7.78,-14.5305 -5.28,-26.8639 7.5,-37 z"
         id="path1" />
    </g>
    <g
       id="g2"
       transform="matrix(1.2345679,0,0,1.2345679,-24.906152,-20.217308)">
      <path
         style="opacity:0.87"
         fill="#b50011"
         d="m 170.5,65.5 c 1.373,-0.1567 2.707,0.01 4,0.5 5.901,4.8668 12.067,9.3668 18.5,13.5 -0.219,6.9428 -3.053,12.7761 -8.5,17.5 2.12,2.4087 4.12,4.909 6,7.5 5.78,-2.544 11.78,-3.71 18,-3.5 4.146,8.429 6.646,17.263 7.5,26.5 -4.58,2.475 -9.414,4.475 -14.5,6 -0.987,3.268 -1.32,6.602 -1,10 5.071,1.19 10.071,2.69 15,4.5 0.93,1.194 1.597,2.527 2,4 -2.425,8.283 -5.425,16.283 -9,24 -5.578,0.202 -10.911,-0.964 -16,-3.5 -2.057,1.769 -3.89,3.769 -5.5,6 -0.667,1 -0.667,2 0,3 2.333,3.333 4.667,6.667 7,10 0.667,2 0.667,4 0,6 -6.721,4.897 -13.554,9.564 -20.5,14 -1.687,-0.26 -3.187,-0.927 -4.5,-2 -2.422,-3.844 -5.089,-7.51 -8,-11 -2.587,1.696 -5.421,2.696 -8.5,3 0.166,4.679 -0.001,9.345 -0.5,14 -0.309,1.266 -0.809,2.433 -1.5,3.5 -9,0.667 -18,0.667 -27,0 -0.5,-0.5 -1,-1 -1.5,-1.5 -0.171,-5.033 -0.671,-10.033 -1.5,-15 -2.931,-0.773 -5.764,-1.773 -8.5,-3 -2.955,3.744 -5.789,7.578 -8.5,11.5 -2,0.667 -4,0.667 -6,0 -6.447,-4.113 -12.6137,-8.613 -18.5,-13.5 -0.6667,-1.667 -0.6667,-3.333 0,-5 2,-2.667 4,-5.333 6,-8 0.9819,-1.259 1.3152,-2.592 1,-4 -2.2368,-2.147 -4.2368,-4.48 -6,-7 -4.8698,2.627 -10.0365,3.793 -15.5,3.5 -3.9711,-7.573 -6.9711,-15.573 -9,-24 0.3623,-1.225 0.8623,-2.391 1.5,-3.5 4.4447,-1.76 8.9447,-3.427 13.5,-5 1.3333,-3.333 1.3333,-6.667 0,-10 -5.0865,-1.525 -9.9198,-3.525 -14.5,-6 0.8761,-8.976 3.2095,-17.643 7,-26 1.231,-0.608 2.5643,-0.941 4,-1 4.0472,0.793 8.0472,1.793 12,3 3.0642,-1.73 5.5642,-4.23 7.5,-7.5 C 81.6443,92.7778 78.811,87.6111 78,81.5 84.037,76.5571 90.2037,71.7238 96.5,67 c 2.0675,-0.6869 4.068,-0.5202 6,0.5 2.976,4.1438 6.143,8.1438 9.5,12 1.011,-0.8366 2.178,-1.17 3.5,-1 0.331,8.6922 -0.002,17.3589 -1,26 -15.863,11.049 -22.363,26.049 -19.5,45 9.431,27.407 28.264,37.573 56.5,30.5 22.643,-11.124 30.81,-28.957 24.5,-53.5 -3.852,-9.176 -9.852,-16.51 -18,-22 -0.5,-8.6603 -0.666,-17.3269 -0.5,-26 1.052,0.1495 2.052,-0.0172 3,-0.5 3.243,-4.3668 6.577,-8.5335 10,-12.5 z"
         id="path2" />
    </g>
  </g>
</svg>
